HIERARCHY
ROOT SpineBase
{
  OFFSET 0.000000 0.000000 0.000000
  CHANNELS 6 Xposition Yposition Zposition Zrotation Xrotation Yrotation
  JOINT SpineMid
  {
    OFFSET 0.000000 26.983103 0.000000
    CHANNELS 3 Zrotation Xrotation Yrotation
    JOINT SpineShoulder
    {
      OFFSET -0.095583 20.086451 -0.686439
      CHANNELS 3 Zrotation Xrotation Yrotation
      JOINT Neck
      {
        OFFSET -0.071596 6.663977 -0.518836
        CHANNELS 3 Zrotation Xrotation Yrotation
        JOINT Head
        {
          OFFSET -1.941096 12.089641 1.806560
          CHANNELS 3 Zrotation Xrotation Yrotation
          End Site
          {
            OFFSET 0 0 0
          }
        }
      }
      JOINT ShoulderLeft
      {
        OFFSET -12.523399 -3.913378 4.375189
        CHANNELS 3 Zrotation Xrotation Yrotation
        JOINT ElbowLeft
        {
          OFFSET -0.975900 -25.203905 1.551998
          CHANNELS 3 Zrotation Xrotation Yrotation
          JOINT WristLeft
          {
            OFFSET -0.107634 -20.809070 -6.718634
            CHANNELS 3 Zrotation Xrotation Yrotation
            JOINT HandLeft
            {
              OFFSET 0.166309 -5.563838 -0.354853
              CHANNELS 3 Zrotation Xrotation Yrotation
              JOINT HandTipLeft
              {
                OFFSET -0.479120 -6.531083 0.586959
                CHANNELS 3 Zrotation Xrotation Yrotation
                End Site
                {
                  OFFSET 0 0 0
                }
              }
              JOINT ThumbLeft
              {
                OFFSET 3.340349 -0.602704 -2.600225
                CHANNELS 3 Zrotation Xrotation Yrotation
                End Site
                {
                  OFFSET 0 0 0
                }
              }
            }
          }
        }
      }
      JOINT ShoulderRight
      {
        OFFSET 11.288418 -3.500869 -8.176470
        CHANNELS 3 Zrotation Xrotation Yrotation
        JOINT ElbowRight
        {
          OFFSET 4.146531 -22.065785 -2.746193
          CHANNELS 3 Zrotation Xrotation Yrotation
          JOINT WristRight
          {
            OFFSET -1.757761 -19.646271 -6.635645
            CHANNELS 3 Zrotation Xrotation Yrotation
            JOINT HandRight
            {
              OFFSET -0.609665 -6.546862 -0.931219
              CHANNELS 3 Zrotation Xrotation Yrotation
              JOINT HandTipRight
              {
                OFFSET -0.718559 -5.535621 -0.572001
                CHANNELS 3 Zrotation Xrotation Yrotation
                End Site
                {
                  OFFSET 0 0 0
                }
              }
              JOINT ThumbRight
              {
                OFFSET 0.547073 -0.791083 -3.065113
                CHANNELS 3 Zrotation Xrotation Yrotation
                End Site
                {
                  OFFSET 0 0 0
                }
              }
            }
          }
        }
      }
    }
  }
  JOINT HipLeft
  {
    OFFSET -5.618917 0.192980 -0.802252
    CHANNELS 3 Zrotation Xrotation Yrotation
    JOINT KneeLeft
    {
      OFFSET 6.392720 -30.542914 3.944353
      CHANNELS 3 Zrotation Xrotation Yrotation
      JOINT AnkleLeft
      {
        OFFSET 7.240536 -31.220191 7.497464
        CHANNELS 3 Zrotation Xrotation Yrotation
        JOINT FootLeft
        {
          OFFSET -4.693151 -2.048575 -11.127950
          CHANNELS 3 Zrotation Xrotation Yrotation
          End Site
          {
            OFFSET 0 0 0
          }
        }
      }
    }
  }
  JOINT HipRight
  {
    OFFSET 4.921456 1.220258 -5.376833
    CHANNELS 3 Zrotation Xrotation Yrotation
    JOINT KneeRight
    {
      OFFSET 9.064946 -26.865190 -1.869570
      CHANNELS 3 Zrotation Xrotation Yrotation
      JOINT AnkleRight
      {
        OFFSET 7.095768 -35.083262 8.466645
        CHANNELS 3 Zrotation Xrotation Yrotation
        JOINT FootRight
        {
          OFFSET -4.036989 -7.034135 -0.012981
          CHANNELS 3 Zrotation Xrotation Yrotation
          End Site
          {
            OFFSET 0 0 0
          }
        }
      }
    }
  }
}
MOTION
Frames: 15
Frame Time: 0.033333
42.353509 69.862063 367.677333 3.412944 0.482782 15.544377 0.150996 0.436483 -15.450802 -0.178892 0.098808 0.138932 -2.221691 -7.419107 -1.412573 0.000000 0.000000 0.000000 -69.522440 36.588140 17.460508 -160.062177 14.354503 -26.931213 -9.093195 33.940333 -13.994638 1.637788 17.095450 -35.507468 0.000000 0.000000 0.000000 0.000000 0.000000 0.000000 -51.915752 53.907381 42.286423 -159.998120 23.684894 -100.553135 -18.359050 -0.203736 23.657544 14.566424 30.838341 28.488506 0.000000 0.000000 0.000000 0.000000 0.000000 0.000000 -7.780812 0.458719 -16.302045 3.173386 1.666187 0.636669 5.547614 -10.384558 -2.723549 0.000000 0.000000 0.000000 -6.523541 1.410527 -15.234350 2.562343 1.413525 -0.108993 -2.759790 5.037478 -3.718862 0.000000 0.000000 0.000000
42.353850 69.868901 367.697255 3.426780 0.562364 15.557113 0.168654 0.449694 -15.465162 -0.160208 0.123595 0.141699 -2.758686 -7.287019 -1.343785 0.000000 0.000000 0.000000 -69.062124 36.425089 17.088506 -160.549248 14.259190 -26.875037 -10.147126 34.447074 -15.147092 0.260771 18.514483 -48.560173 0.000000 0.000000 0.000000 0.000000 0.000000 0.000000 -51.717587 53.863218 42.058389 -160.154558 23.766096 -100.153816 -18.255128 2.405909 32.003051 15.874925 27.582585 24.758638 0.000000 0.000000 0.000000 0.000000 0.000000 0.000000 -7.782052 0.335258 -16.329668 3.237614 1.699422 0.660658 5.570703 -10.692883 -2.859108 0.000000 0.000000 0.000000 -6.624618 1.310026 -15.267018 2.686058 1.519987 -0.070010 -3.418581 0.738770 -1.481250 0.000000 0.000000 0.000000
42.356657 69.877099 367.706992 3.448431 0.654692 15.658873 0.188702 0.445465 -15.568007 -0.140326 0.144117 0.145242 -3.261368 -7.157947 -1.281481 0.000000 0.000000 0.000000 -68.726021 36.017673 16.599698 -161.391586 14.165170 -26.928726 -6.923623 33.569823 -13.044985 1.647884 17.011110 -35.654358 0.000000 0.000000 0.000000 0.000000 0.000000 0.000000 -51.305895 53.968206 41.759534 -160.422595 23.774758 -99.601539 -18.492141 2.517740 33.552166 16.492375 25.425691 21.317801 0.000000 0.000000 0.000000 0.000000 0.000000 0.000000 -7.807191 0.236501 -16.444624 3.202088 1.762049 0.669765 5.417988 -10.375434 -2.711668 0.000000 0.000000 0.000000 -6.727403 1.224719 -15.384031 2.755390 1.611165 -0.047737 -2.900534 -4.586669 1.309236 0.000000 0.000000 0.000000
42.358696 69.887643 367.715451 3.456108 0.733010 15.738228 0.182901 0.431604 -15.648803 -0.139679 0.146847 0.145778 -3.534340 -6.967796 -1.222712 0.000000 0.000000 0.000000 -68.323769 35.989333 16.398231 -162.262344 14.573186 -27.315410 -2.645009 32.074089 -8.853375 -1.889377 15.344796 -22.500219 0.000000 0.000000 0.000000 0.000000 0.000000 0.000000 -50.730201 54.060432 41.381650 -160.685104 23.608803 -99.494890 -18.350875 -0.583668 20.062481 15.015139 29.555430 24.536341 0.000000 0.000000 0.000000 0.000000 0.000000 0.000000 -7.820361 0.158137 -16.533967 3.173667 1.845440 0.685282 4.034363 -7.559649 -0.875089 0.000000 0.000000 0.000000 -6.764948 1.176857 -15.465811 2.763791 1.614532 -0.050828 -2.628678 -8.767603 3.562535 0.000000 0.000000 0.000000
42.358606 69.903486 367.719291 3.443699 0.792760 15.820058 0.150835 0.406078 -15.732423 -0.153896 0.131616 0.143375 -3.562019 -6.786546 -1.180577 0.000000 0.000000 0.000000 -67.879535 36.282104 16.453651 -163.062167 15.369496 -27.996320 2.135343 30.845764 -4.440673 -6.191371 14.141703 -14.467082 0.000000 0.000000 0.000000 0.000000 0.000000 0.000000 -50.039002 54.160686 40.976742 -160.024135 22.392534 -100.331073 -23.014180 -9.866053 1.442824 18.315047 37.967639 21.081818 0.000000 0.000000 0.000000 0.000000 0.000000 0.000000 -7.826896 0.111566 -16.623065 3.174454 2.006076 0.724427 4.466135 -8.503625 -1.888828 0.000000 0.000000 0.000000 -6.719903 1.178711 -15.533709 2.706035 1.493427 -0.087016 -0.434974 -13.196157 6.341861 0.000000 0.000000 0.000000
42.356098 69.911095 367.713561 3.416901 0.821749 15.848667 0.095804 0.368967 -15.762663 -0.187444 0.098521 0.137946 -3.484126 -6.602476 -1.145144 0.000000 0.000000 0.000000 -67.504813 36.723230 16.692875 -163.722122 16.406476 -29.050882 5.028935 28.759270 4.612103 -8.200942 15.379794 -13.596246 0.000000 0.000000 0.000000 0.000000 0.000000 0.000000 -49.379425 54.253850 40.639993 -160.320113 22.148850 -100.387291 -23.900529 -11.032323 11.923480 30.276852 30.533274 -4.707949 0.000000 0.000000 0.000000 0.000000 0.000000 0.000000 -7.789322 0.090157 -16.650289 3.109007 2.166451 0.752224 4.405681 -8.335893 -2.268454 0.000000 0.000000 0.000000 -6.652906 1.179766 -15.552963 2.590734 1.381011 -0.130853 2.754364 -17.164427 9.306076 0.000000 0.000000 0.000000
42.356180 69.917678 367.711607 3.387005 0.853272 15.937937 0.052598 0.346801 -15.853954 -0.213631 0.075716 0.133196 -3.317115 -6.626480 -1.149588 0.000000 0.000000 0.000000 -67.142908 37.466399 17.105808 -164.188918 17.575280 -29.837091 8.387775 26.369730 17.323660 -7.847116 19.476403 -23.615176 0.000000 0.000000 0.000000 0.000000 0.000000 0.000000 -48.895853 54.265568 40.368722 -161.430341 22.862946 -100.222597 -22.159768 -8.532659 16.569442 28.660079 22.961662 -12.891544 0.000000 0.000000 0.000000 0.000000 0.000000 0.000000 -7.755024 0.135586 -16.726424 3.036987 2.284084 0.769262 3.854233 -7.106500 -1.944048 0.000000 0.000000 0.000000 -6.591160 1.176521 -15.635860 2.520054 1.226933 -0.173949 0.556831 -8.748872 4.099065 0.000000 0.000000 0.000000
42.364823 69.921452 367.715826 3.341002 0.859660 16.003247 -0.002208 0.318189 -15.921192 -0.249858 0.050793 0.126333 -2.982099 -6.247779 -1.100066 0.000000 0.000000 0.000000 -66.850852 38.170417 17.554804 -164.132584 18.707163 -31.326986 1.904944 26.851217 11.011443 -8.146004 15.606804 -10.855522 0.000000 0.000000 0.000000 0.000000 0.000000 0.000000 -48.916392 54.155627 40.422156 -163.051793 24.444556 -100.166839 -18.491526 -4.232438 5.942006 18.775805 21.295518 -3.888956 0.000000 0.000000 0.000000 0.000000 0.000000 0.000000 -7.693497 0.174462 -16.779648 2.989888 2.366732 0.782875 5.275055 -10.236715 -3.432905 0.000000 0.000000 0.000000 -6.529790 1.129277 -15.715421 2.443106 1.131824 -0.200370 4.886735 -13.155210 7.428835 0.000000 0.000000 0.000000
42.384854 69.917570 367.733371 3.333584 0.873696 16.035404 -0.024076 0.299074 -15.953894 -0.248348 0.040832 0.125566 -2.855936 -6.009045 -1.070518 0.000000 0.000000 0.000000 -66.702283 38.978850 18.049547 -164.264300 19.922905 -32.416885 0.502160 26.050226 13.245349 -7.368300 16.928332 -17.400004 0.000000 0.000000 0.000000 0.000000 0.000000 0.000000 -49.214777 53.848499 40.462274 -164.928775 26.411481 -99.852445 -12.746505 4.927775 10.068364 10.849564 10.939741 -4.143285 0.000000 0.000000 0.000000 0.000000 0.000000 0.000000 -7.671055 0.222797 -16.797974 2.948612 2.421875 0.791212 4.520211 -8.354950 -3.559169 0.000000 0.000000 0.000000 -6.520593 1.067539 -15.767629 2.379829 1.161752 -0.197880 4.495303 -7.280587 3.742865 0.000000 0.000000 0.000000
42.405312 69.910307 367.761147 3.334500 0.868586 16.066049 -0.037120 0.298070 -15.984760 -0.241717 0.039151 0.125636 -2.742327 -5.769712 -1.042160 0.000000 0.000000 0.000000 -66.383191 39.608548 18.348922 -164.522378 20.882337 -33.379866 0.127160 24.818623 17.584353 -6.362156 19.503583 -28.679705 0.000000 0.000000 0.000000 0.000000 0.000000 0.000000 -49.589890 53.784167 40.701468 -167.065287 28.665437 -99.879970 -7.099173 14.138521 10.797123 1.438278 3.870406 5.195273 0.000000 0.000000 0.000000 0.000000 0.000000 0.000000 -7.646831 0.294127 -16.810829 2.950738 2.432301 0.798046 5.536018 -11.069362 -3.176274 0.000000 0.000000 0.000000 -6.507394 1.008565 -15.822584 2.290584 1.298080 -0.173781 4.417063 -2.197899 0.560275 0.000000 0.000000 0.000000
42.428625 69.886565 367.806015 3.348090 0.891151 15.996926 -0.029977 0.303956 -15.915855 -0.217294 0.043340 0.128668 -2.735631 -5.854446 -1.059712 0.000000 0.000000 0.000000 -66.295085 40.028481 18.546409 -164.539878 21.407799 -33.775289 0.565699 23.839670 21.664548 -5.191874 23.293624 -47.046994 0.000000 0.000000 0.000000 0.000000 0.000000 0.000000 -50.034015 53.742428 40.962809 -168.944377 30.748003 -100.327338 -1.173142 22.939509 8.376296 -9.361043 -2.216262 22.936835 0.000000 0.000000 0.000000 0.000000 0.000000 0.000000 -7.644737 0.330687 -16.728137 2.978572 2.390603 0.797279 6.081357 -12.643610 -2.368748 0.000000 0.000000 0.000000 -6.530956 0.922884 -15.778640 2.218247 1.379785 -0.162423 6.169300 -3.254184 1.286424 0.000000 0.000000 0.000000
42.457403 69.867895 367.856685 3.369753 0.928900 16.015506 -0.013932 0.303909 -15.934385 -0.184459 0.054566 0.133162 -2.745932 -6.071568 -1.099208 0.000000 0.000000 0.000000 -66.364652 40.253841 18.653729 -164.432668 21.540560 -33.604627 0.750824 23.825316 21.991416 -3.955528 25.425998 -61.288541 0.000000 0.000000 0.000000 0.000000 0.000000 0.000000 -50.465431 53.769394 41.237020 -170.702498 32.865040 -102.335788 2.356811 29.547960 8.966717 -19.184182 -3.464290 48.648795 0.000000 0.000000 0.000000 0.000000 0.000000 0.000000 -7.659238 0.394135 -16.729543 2.942016 2.328141 0.778064 6.171067 -12.954729 -1.196213 0.000000 0.000000 0.000000 -6.623178 0.809965 -15.833800 2.184640 1.585356 -0.125804 5.808025 1.697089 -1.916805 0.000000 0.000000 0.000000
42.500905 69.847953 367.906015 3.436955 0.945367 15.984317 0.007524 0.302675 -15.901322 -0.153061 0.072847 0.139533 -2.882219 -6.187501 -1.122370 0.000000 0.000000 0.000000 -66.937073 40.115086 18.702845 -164.188994 21.331303 -33.085007 2.879970 23.806139 24.204970 -3.133668 25.524569 -60.939041 0.000000 0.000000 0.000000 0.000000 0.000000 0.000000 -50.818683 53.629389 41.303465 -171.748081 34.348538 -104.718485 4.967227 33.583892 7.204714 -28.006698 -2.731776 74.103524 0.000000 0.000000 0.000000 0.000000 0.000000 0.000000 -7.753615 0.471008 -16.688049 2.928522 2.289589 0.765020 5.695396 -11.967482 0.090253 0.000000 0.000000 0.000000 -6.701252 0.846097 -15.789915 2.132343 1.698345 -0.123156 4.459698 11.385107 -7.951899 0.000000 0.000000 0.000000
42.557760 69.846931 367.961860 3.476535 0.966643 15.885800 0.006693 0.305253 -15.802538 -0.143222 0.081164 0.142031 -2.700672 -6.403026 -1.175859 0.000000 0.000000 0.000000 -67.281672 40.113883 18.792165 -163.907876 21.153704 -32.567743 4.709656 23.265432 28.253431 -1.842497 28.394851 -73.143411 0.000000 0.000000 0.000000 0.000000 0.000000 0.000000 -50.887206 53.236901 41.051228 -171.796013 34.824353 -107.377111 4.819769 34.019611 7.331700 -31.613710 -0.089715 85.908410 0.000000 0.000000 0.000000 0.000000 0.000000 0.000000 -7.852898 0.528729 -16.585859 2.941053 2.231539 0.749689 4.664632 -9.803305 1.474911 0.000000 0.000000 0.000000 -6.768861 0.899454 -15.666372 2.036884 1.732386 -0.157885 3.015137 27.713006 -17.721476 0.000000 0.000000 0.000000
42.629321 69.859143 368.009381 3.515618 1.021802 15.783255 0.007629 0.323055 -15.701158 -0.131957 0.093893 0.144689 -2.511611 -6.738385 -1.240531 0.000000 0.000000 0.000000 -67.462546 39.985273 18.700420 -163.673759 20.847839 -32.080180 5.141707 22.875593 29.924721 0.308092 29.596201 -81.544910 0.000000 0.000000 0.000000 0.000000 0.000000 0.000000 -51.127885 52.965470 41.000951 -170.751475 34.393731 -109.874148 2.274891 29.386458 7.322202 -29.049025 4.524793 86.164390 0.000000 0.000000 0.000000 0.000000 0.000000 0.000000 -8.001412 0.564261 -16.489152 2.991115 2.272299 0.762991 5.586821 -11.465860 -0.238033 0.000000 0.000000 0.000000 -6.877978 0.975331 -15.522352 1.962700 1.687173 -0.224084 3.464399 37.713331 -24.158704 0.000000 0.000000 0.000000
